# xmcd CD database file
#
# Track frame offsets:
#	150
#	21217
#	39735
#	44587
#	80972
#	96677
#	106537
#	129912
#	151545
#	169982
#	191515
#
# Disc length: 2616 seconds
#
# Revision: 0
# Processed by: cddbd v1.5.1PL0 Copyright (c) Steve Scherf et al.
# Submitted via: CDex 1.51
#
DISCID=8c0a360b
DTITLE=Ståhls blå - Ståhls blå
DYEAR=2001
DGENRE=Jazz
TTITLE0=Blues för mor
TTITLE1=Zinken
TTITLE2=Oppsummere
TTITLE3=Skavsår
TTITLE4=Solsång
TTITLE5=Plüstre
TTITLE6=Sorry Dog
TTITLE7=Tova
TTITLE8=Hard
TTITLE9=Swebus
TTITLE10=Sju
EXTD=YEAR: 2001
EXTT0=
EXTT1=
EXTT2=
EXTT3=
EXTT4=
EXTT5=
EXTT6=
EXTT7=
EXTT8=
EXTT9=
EXTT10=
PLAYORDER=
